<svg xmlns="http://www.w3.org/2000/svg" viewBox="0 0 100 100">
  <defs>
    <linearGradient id="grad" x1="0%" y1="0%" x2="100%" y2="100%">
      <stop offset="0%" style="stop-color:#0066FF;stop-opacity:1" />
      <stop offset="50%" style="stop-color:#00B3FF;stop-opacity:1" />
      <stop offset="100%" style="stop-color:#0099FF;stop-opacity:1" />
    </linearGradient>
  </defs>
  
  <!-- Background circle -->
  <circle cx="50" cy="50" r="48" fill="url(#grad)"/>
  
  <!-- Letter M -->
  <path d="M 25 35 L 25 65 L 30 65 L 30 45 L 40 60 L 45 60 L 55 45 L 55 65 L 60 65 L 60 35 L 53 35 L 42.5 52 L 32 35 Z" fill="white"/>
  
  <!-- Letter H -->
  <path d="M 65 35 L 65 65 L 70 65 L 70 52 L 80 52 L 80 65 L 85 65 L 85 35 L 80 35 L 80 47 L 70 47 L 70 35 Z" fill="white"/>
  
  <!-- Accent dot -->
  <circle cx="50" cy="75" r="3" fill="white"/>
</svg>
